<svg xmlns="http://www.w3.org/2000/svg" viewBox="0 0 182.28 198.09"><defs><style>.cls-1{fill:#737373;}.cls-2{fill:#90a0a5;}.cls-3{font-size:88.74px;fill:#e6e6e6;font-family:Roboto-Bold, Roboto;font-weight:700;}</style></defs><title>Asset 4</title><g id="Layer_2" data-name="Layer 2"><g id="Layer_2-2" data-name="Layer 2"><path class="cls-1" d="M103.22,158.65c.69-.73,1.57-1,7.79-1.16,7.41-.16,8.29.21,8.94.87a4.82,4.82,0,0,1,.09,6.15c-.43.48-1.29,1.18-10,1.19-5,0-5.94-.17-6.71-.91A4.66,4.66,0,0,1,103.22,158.65Z"/><path class="cls-1" d="M103.1,150.44c.69-.73,1.57-1,7.79-1.16,7.41-.16,8.29.21,8.94.87a4.82,4.82,0,0,1,.09,6.15c-.43.48-1.29,1.18-10,1.19-5,0-5.94-.17-6.71-.91A4.66,4.66,0,0,1,103.1,150.44Z"/><path class="cls-1" d="M103.35,166.85c.69-.73,1.57-1,7.79-1.16,7.41-.16,8.29.21,8.94.87a4.82,4.82,0,0,1,.09,6.15c-.43.48-1.29,1.18-10,1.19-5,0-5.94-.17-6.71-.91A4.66,4.66,0,0,1,103.35,166.85Z"/><path class="cls-2" d="M112.08,173.73c7.33.52,7.87-.17,10,.39,7.72,2,14.67,14.56,11.55,20.4-2.49,4.65-10.71,3.85-23.53,2.6-5.83-.57-7.54-1.39-8.83-2.69-5.28-5.32-3.34-18.35,1.86-21.05C104.68,172.59,105.39,173.25,112.08,173.73Z"/><path class="cls-1" d="M79.84,159.07c-.67-.75-1.54-1.07-7.75-1.4-7.4-.4-8.29-.05-9,.59a4.82,4.82,0,0,0-.29,6.15c.41.5,1.25,1.22,10,1.51,5,.16,5.94,0,6.73-.7A4.66,4.66,0,0,0,79.84,159.07Z"/><path class="cls-1" d="M80.23,150.87c-.67-.75-1.54-1.07-7.75-1.4-7.4-.4-8.29-.05-9,.59a4.82,4.82,0,0,0-.29,6.15c.41.5,1.25,1.22,10,1.51,5,.16,5.94,0,6.73-.7A4.66,4.66,0,0,0,80.23,150.87Z"/><path class="cls-1" d="M79.46,167.26c-.67-.75-1.54-1.07-7.75-1.4-7.4-.4-8.29-.05-9,.59a4.82,4.82,0,0,0-.29,6.15c.41.5,1.25,1.22,10,1.51,5,.16,5.94,0,6.73-.7A4.66,4.66,0,0,0,79.46,167.26Z"/><path class="cls-2" d="M70.52,173.86c-7.34.29-7.86-.42-10,.08C52.7,175.71,45.36,188,48.29,194c2.34,4.73,10.59,4.18,23.43,3.34,5.85-.39,7.58-1.15,8.91-2.41,5.45-5.15,3.92-18.24-1.2-21.1C77.94,173,77.22,173.6,70.52,173.86Z"/><path class="cls-2" d="M3.43,58.24c0-1.67,6.08-4.94,10.26-2.42,3.7,2.24,4.71,8.31,2.34,12.45-2.06,3.6-6.53,5.5-10.26,4.08C1.07,70.56-.72,64.16.26,63.19c.19-.18.47-.17,3.94.86,3.13.92,3.73,1.15,3.94.86.46-.65-1.37-3.25-3.14-5C3.87,58.8,3.43,58.69,3.43,58.24Z"/><path class="cls-1" d="M45.64,69.85a5,5,0,0,0-6.38.26c-3.59,3-4,10.92-.69,14.52C40.27,86.47,43,87.24,45,86,49.1,83.41,49.47,73,45.64,69.85Z"/><path class="cls-1" d="M34.8,67.63a5,5,0,0,0-6.37-.4c-3.87,2.58-5.08,10.45-2.15,14.37,1.5,2,4.14,3.06,6.27,2C36.87,81.48,38.28,71.18,34.8,67.63Z"/><path class="cls-1" d="M24.63,65.59a5,5,0,0,0-6.26-1.26c-4.18,2-6.41,9.66-4,13.95,1.22,2.2,3.69,3.59,5.95,2.84C24.85,79.59,27.61,69.58,24.63,65.59Z"/><path class="cls-2" d="M178.83,52.15c0-1.67-6.1-4.91-10.27-2.37-3.69,2.25-4.68,8.33-2.28,12.46,2.08,3.59,6.56,5.47,10.28,4,4.69-1.81,6.45-8.22,5.46-9.18-.19-.18-.47-.16-3.94.87-3.13.93-3.73,1.17-3.94.87-.46-.65,1.36-3.26,3.12-5C178.39,52.71,178.83,52.6,178.83,52.15Z"/><path class="cls-1" d="M136.66,63.94a5,5,0,0,1,6.38.23c3.61,2.95,4,10.9.75,14.52-1.69,1.85-4.41,2.63-6.43,1.38C133.26,77.51,132.85,67.13,136.66,63.94Z"/><path class="cls-1" d="M147.5,61.67a5,5,0,0,1,6.37-.43c3.88,2.56,5.12,10.42,2.21,14.36-1.49,2-4.12,3.08-6.26,2C145.48,75.53,144,65.24,147.5,61.67Z"/><path class="cls-1" d="M157.66,59.59a5,5,0,0,1,6.25-1.28c4.19,2,6.45,9.64,4.09,13.93-1.21,2.2-3.68,3.6-5.94,2.86C157.5,73.6,154.69,63.6,157.66,59.59Z"/><path class="cls-1" d="M47.84,137.21,45.23,24.45a50,50,0,0,1,16.24-17A46.86,46.86,0,0,1,88.51.2a48.56,48.56,0,0,1,29.88,6.95,50.37,50.37,0,0,1,15.09,14.63q.27,8.21.52,16.45,1.48,49.15,2.05,97.48l-15,14.71-59.15.21"/><text class="cls-3" transform="matrix(0.95, -0.03, 0.03, 1, 64.4, 107.35)">R</text></g></g></svg>